<svg width="276" height="185" viewBox="0 0 276 185" fill="none" xmlns="http://www.w3.org/2000/svg">
<mask id="mask0_3817_42892" style="mask-type:alpha" maskUnits="userSpaceOnUse" x="0" y="0" width="247" height="185">
<rect width="246.51" height="184.882" fill="#D9D9D9"/>
</mask>
<g mask="url(#mask0_3817_42892)">
<circle cx="128.314" cy="122.795" r="103.479" fill="#D9FFF6"/>
</g>
<path d="M192.993 143.17L192.985 143.155L192.975 143.142L190.187 139.238C189.607 134.991 187.881 132.917 185.715 132.245C183.569 131.579 181.092 132.324 179.091 133.467C177.379 134.446 176.912 136.605 177.002 138.68C177.091 140.73 177.726 142.824 178.4 143.923C178.4 146.174 178.405 149.298 178.97 152.203C179.538 155.131 180.687 157.905 183.041 159.318C185.382 160.722 188.429 160.711 191.089 159.791C193.746 158.872 196.079 157.023 196.96 154.672C197.794 152.446 197.245 150.438 196.276 148.563C195.793 147.628 195.201 146.717 194.618 145.825L194.576 145.76C194.005 144.887 193.446 144.031 192.993 143.17Z" fill="#FFDE3B" stroke="#282828" stroke-width="0.5" stroke-linecap="round"/>
<path d="M256.592 126.043L256.731 126.251C256.729 126.252 256.713 126.262 256.682 126.28C256.65 126.297 256.608 126.319 256.553 126.346M256.592 126.043C256.593 126.042 256.594 126.041 256.595 126.041M256.592 126.043C256.59 126.044 256.587 126.047 256.584 126.049L256.573 126.057C256.571 126.058 256.569 126.063 256.566 126.071M256.592 126.043C256.595 126.041 256.596 126.041 256.592 126.043L256.731 126.251L256.566 126.071M256.595 126.041L256.596 126.04L256.596 126.04L256.596 126.04L256.596 126.04L256.596 126.04L256.597 126.04L256.598 126.039L256.6 126.038L256.605 126.035L256.615 126.029C256.625 126.024 256.746 126.001 256.855 126.033C256.879 126.069 256.896 126.106 256.906 126.143C258.183 125.418 259.821 125.794 260.648 127.034C261.513 128.332 261.162 130.085 259.864 130.951C258.864 131.618 257.186 132.25 255.026 132.672C252.793 133.108 249.864 133.354 246.248 133.113C241.891 132.823 237.952 130.176 234.999 127.481C231.977 124.723 229.557 121.518 228.218 119.355C227.397 118.029 227.806 116.288 229.133 115.467C230.459 114.646 232.2 115.055 233.021 116.382C234.129 118.172 236.228 120.955 238.807 123.309C241.457 125.727 244.202 127.316 246.623 127.477C249.786 127.688 252.223 127.464 253.944 127.128C254.805 126.96 255.476 126.766 255.962 126.59C256.204 126.503 256.391 126.423 256.527 126.358C256.536 126.354 256.544 126.35 256.553 126.346M256.595 126.041L256.591 126.043C256.586 126.046 256.576 126.052 256.56 126.061L256.566 126.071M256.595 126.041C258.008 125.101 259.915 125.484 260.856 126.895C261.798 128.308 261.416 130.217 260.003 131.159C258.964 131.851 257.25 132.492 255.074 132.917C252.818 133.358 249.867 133.605 246.231 133.363C241.789 133.067 237.797 130.372 234.831 127.666C231.789 124.89 229.355 121.666 228.005 119.486C227.111 118.043 227.557 116.148 229.001 115.254C230.445 114.36 232.339 114.806 233.233 116.25C234.332 118.024 236.416 120.788 238.976 123.124C241.612 125.53 244.304 127.072 246.64 127.228C249.782 127.437 252.198 127.214 253.896 126.883C254.746 126.716 255.405 126.526 255.877 126.355C256.112 126.27 256.292 126.193 256.42 126.133C256.483 126.103 256.529 126.078 256.56 126.061L256.566 126.071M256.553 126.346C256.521 126.225 256.55 126.11 256.566 126.071M256.553 126.346L256.566 126.071" fill="#FFDE3B" stroke="black" stroke-width="0.5" stroke-linecap="round"/>
<path d="M205.2 121.257C204.258 131.425 201.133 151.534 196.162 150.63C191.191 149.727 187.689 144.229 186.559 141.593" stroke="black" stroke-width="5" stroke-linecap="round"/>
<path d="M213.9 184.414C213.936 184.512 214.029 184.576 214.134 184.576L243.481 184.577C243.586 184.577 243.68 184.51 243.716 184.411C244.395 182.511 244.53 180.894 244.28 179.519C244.03 178.143 243.396 177.027 242.561 176.125C240.9 174.329 238.443 173.38 236.61 172.88C231.536 171.496 227.358 173.512 225.157 174.573C224.789 174.751 224.476 174.902 224.223 175.006H220.537C217.788 175.006 215.707 176.246 214.525 178.054C213.346 179.857 213.072 182.208 213.9 184.414Z" fill="#FFDE3B" stroke="#282828" stroke-width="0.5" stroke-linejoin="round"/>
<path d="M219.596 124.082C220.925 134.776 223.45 154.739 223.84 176.049" stroke="black" stroke-width="5" stroke-linecap="round"/>
<path d="M224.25 57.401C217.034 50.6229 205.792 50.6229 198.576 57.401L192.984 62.6536C191.37 64.1692 189.507 65.3951 187.477 66.2775L182.97 68.2363C172.603 72.7419 168.55 85.328 174.34 95.0364L175.73 97.3668C177.006 99.5072 177.855 101.875 178.229 104.339L178.898 108.752C180.463 119.066 190.144 126.119 200.441 124.447L208.328 123.167C210.371 122.835 212.454 122.835 214.497 123.167L222.385 124.447C232.682 126.119 242.363 119.066 243.927 108.752L244.597 104.339C244.971 101.875 245.82 99.5072 247.096 97.3668L248.486 95.0364C254.276 85.328 250.223 72.7419 239.856 68.2363L235.348 66.2775C233.318 65.3951 231.455 64.1692 229.842 62.6536L224.25 57.401Z" fill="#FFDE3B" stroke="#282828" stroke-width="0.5"/>
<path d="M228.638 113.018C224.945 112.354 222.415 109.236 222.987 106.053C223.559 102.87 227.017 100.827 230.71 101.491C234.403 102.155 236.934 105.274 236.362 108.457C235.789 111.64 232.332 113.682 228.638 113.018Z" fill="#FF4F18" stroke="#282828" stroke-width="0.5" stroke-linecap="round" stroke-linejoin="round"/>
<path d="M191.815 105.3C191.53 102.078 194.329 99.1987 198.067 98.8677C201.805 98.5367 205.066 100.88 205.351 104.101C205.636 107.323 202.838 110.202 199.1 110.533C195.362 110.864 192.1 108.521 191.815 105.3Z" fill="#FF4F18" stroke="#282828" stroke-width="0.5" stroke-linecap="round" stroke-linejoin="round"/>
<path d="M230.967 90.3812C231.538 91.9473 231.829 93.7197 231.761 95.5893C231.526 101.663 227.56 106.439 222.898 106.261C218.236 106.083 214.647 101.012 214.882 94.9419C214.89 94.6829 214.91 94.4279 214.934 94.173C214.963 93.8614 214.999 93.5538 215.048 93.2544C215.323 91.4981 215.918 89.8956 216.743 88.5439" fill="white"/>
<path d="M230.967 90.3812C231.538 91.9473 231.829 93.7197 231.761 95.5893C231.526 101.663 227.56 106.439 222.898 106.261C218.236 106.083 214.647 101.012 214.882 94.9419C214.89 94.6829 214.91 94.4279 214.934 94.173C214.963 93.8614 214.999 93.5538 215.048 93.2544C215.323 91.4981 215.918 89.8956 216.743 88.5439" stroke="#282828" stroke-width="0.5" stroke-linecap="round" stroke-linejoin="round"/>
<path d="M224.833 91.523C225.731 91.5594 226.609 91.5068 227.463 91.3813C227.896 92.5387 228.123 93.9429 228.066 95.4483C227.916 99.3089 225.958 102.368 223.692 102.283C221.425 102.198 219.71 98.9933 219.855 95.1327C219.855 95.1165 219.855 95.1003 219.855 95.0841C221.579 95.0072 222.854 94.5904 222.874 94.0441C222.894 93.4978 221.769 93.0324 220.183 92.8058C220.365 92.0774 220.612 91.4056 220.916 90.8188C222.142 91.2235 223.457 91.4704 224.833 91.523Z" fill="#282828"/>
<path d="M222.878 94.0436C222.858 94.594 221.583 95.0067 219.859 95.0836C219.892 94.2783 220.009 93.5135 220.187 92.8013C221.773 93.0279 222.898 93.5175 222.878 94.0396V94.0436Z" fill="white"/>
<path d="M230.967 90.3812C229.68 86.8605 226.969 84.392 223.744 84.2706C220.935 84.1614 218.382 85.8529 216.743 88.544" stroke="#282828" stroke-width="0.5" stroke-linecap="round" stroke-linejoin="round"/>
<path d="M227.462 91.3809C226.613 91.5063 225.73 91.5549 224.832 91.5225C223.456 91.4699 222.141 91.2231 220.915 90.8184C219.349 90.3004 217.936 89.5194 216.739 88.5441C218.378 85.8571 220.935 84.1655 223.739 84.2708C226.965 84.3962 229.676 86.8607 230.963 90.3813C229.874 90.8589 228.697 91.1988 227.454 91.3809H227.462Z" fill="#BEFF74" stroke="#282828" stroke-width="0.5" stroke-linecap="round" stroke-linejoin="round"/>
<path d="M228.041 88.4307C228.041 88.4307 227.956 90.106 226.742 91.3888L228.041 88.4307Z" fill="#BEFF74"/>
<path d="M228.041 88.4307C228.041 88.4307 227.956 90.106 226.742 91.3888" stroke="#282828" stroke-width="0.5" stroke-linecap="round" stroke-linejoin="round"/>
<path d="M225.698 88.6729C225.698 88.6729 225.613 90.3482 224.399 91.631L225.698 88.6729Z" fill="#BEFF74"/>
<path d="M225.698 88.6729C225.698 88.6729 225.613 90.3482 224.399 91.631" stroke="#282828" stroke-width="0.5" stroke-linecap="round" stroke-linejoin="round"/>
<path d="M215.152 88.7664C215.783 90.3082 216.143 92.0685 216.143 93.9421C216.143 100.02 212.363 104.945 207.698 104.945C203.032 104.945 199.252 100.02 199.252 93.9421C199.252 93.6832 199.26 93.4282 199.276 93.1733C199.292 92.8617 199.317 92.5541 199.353 92.2506C199.564 90.4862 200.094 88.8594 200.867 87.4795" fill="white"/>
<path d="M215.152 88.7664C215.783 90.3082 216.143 92.0685 216.143 93.9421C216.143 100.02 212.363 104.945 207.698 104.945C203.032 104.945 199.252 100.02 199.252 93.9421C199.252 93.6832 199.26 93.4282 199.276 93.1733C199.292 92.8617 199.317 92.5541 199.353 92.2506C199.564 90.4862 200.094 88.8594 200.867 87.4795" stroke="#282828" stroke-width="0.5" stroke-linecap="round" stroke-linejoin="round"/>
<path d="M209.066 90.1468C209.964 90.1468 210.842 90.0618 211.688 89.904C212.162 91.0452 212.445 92.4373 212.445 93.9427C212.445 97.8073 210.608 100.94 208.337 100.94C206.067 100.94 204.23 97.8073 204.23 93.9427C204.23 93.9265 204.23 93.9103 204.23 93.8941C205.95 93.7484 207.208 93.2871 207.208 92.7367C207.208 92.1864 206.063 91.7696 204.469 91.6037C204.622 90.8672 204.845 90.1873 205.124 89.5884C206.363 89.9445 207.686 90.1428 209.066 90.1428V90.1468Z" fill="#282828"/>
<path d="M207.208 92.7366C207.208 93.287 205.949 93.7483 204.229 93.894C204.229 93.0887 204.318 92.3198 204.468 91.6035C206.062 91.7694 207.208 92.2146 207.208 92.7366Z" fill="white"/>
<path d="M215.152 88.7668C213.732 85.2987 210.928 82.9395 207.698 82.9395C204.89 82.9395 202.401 84.7281 200.867 87.4759" stroke="#282828" stroke-width="0.5" stroke-linecap="round" stroke-linejoin="round"/>
<path d="M211.688 89.9038C210.842 90.0616 209.964 90.1466 209.066 90.1466C207.69 90.1466 206.367 89.9483 205.124 89.5922C203.542 89.1349 202.097 88.4105 200.863 87.4798C202.397 84.732 204.885 82.9434 207.694 82.9434C210.923 82.9434 213.728 85.3026 215.148 88.7747C214.08 89.2927 212.914 89.6812 211.684 89.9078L211.688 89.9038Z" fill="#BEFF74" stroke="#282828" stroke-width="0.5" stroke-linecap="round" stroke-linejoin="round"/>
<path d="M212.154 86.9297C212.154 86.9297 212.134 88.605 210.968 89.9364L212.154 86.9297Z" fill="#BEFF74"/>
<path d="M212.154 86.9297C212.154 86.9297 212.134 88.605 210.968 89.9364" stroke="#282828" stroke-width="0.5" stroke-linecap="round" stroke-linejoin="round"/>
<path d="M209.818 87.2656C209.818 87.2656 209.798 88.941 208.632 90.2724L209.818 87.2656Z" fill="#BEFF74"/>
<path d="M209.818 87.2656C209.818 87.2656 209.798 88.941 208.632 90.2724" stroke="#282828" stroke-width="0.5" stroke-linecap="round" stroke-linejoin="round"/>
<path d="M220.214 107.705C220.214 107.705 215.86 112.448 211.562 105.216" stroke="#282828" stroke-width="0.5" stroke-linecap="round" stroke-linejoin="round"/>
<path d="M246.435 111.404C246.364 111.404 246.297 111.434 246.25 111.487C246.202 111.539 246.179 111.609 246.186 111.679L249.011 139.923C249.023 140.05 249.131 140.148 249.259 140.148H266.205C266.334 140.148 266.441 140.05 266.454 139.923L269.279 111.679C269.286 111.609 269.263 111.539 269.215 111.487C269.168 111.434 269.1 111.404 269.03 111.404H246.435Z" fill="#EFEFEF" stroke="#282828" stroke-width="0.5" stroke-linejoin="round"/>
<rect x="246.185" y="111.404" width="23.0947" height="2.75947" fill="#EFEFEF" stroke="#282828" stroke-width="0.5" stroke-linejoin="round"/>
<rect x="250.629" y="121.521" width="6.14868" height="6.14868" transform="rotate(-21.7981 250.629 121.521)" fill="#D2FCFF" stroke="#282828" stroke-width="0.5" stroke-linejoin="round"/>
<path d="M263.381 124.646L264.511 101.487L258.297 98.0977" stroke="#282828" stroke-width="2" stroke-linecap="round"/>
<path d="M247.657 123.285C247.576 123.252 247.484 123.265 247.414 123.317C247.344 123.37 247.307 123.456 247.316 123.543L249.011 139.924C249.024 140.051 249.131 140.148 249.26 140.148H266.206C266.334 140.148 266.441 140.051 266.454 139.924L268.149 123.543C268.156 123.471 268.133 123.4 268.084 123.348C266.486 121.611 265.116 121.004 263.755 121.063C262.493 121.117 261.282 121.748 259.982 122.424C259.913 122.46 259.843 122.496 259.773 122.533C258.376 123.258 256.83 124.029 254.895 124.33C252.964 124.631 250.627 124.467 247.657 123.285Z" fill="url(#paint0_linear_3817_42892)" stroke="#282828" stroke-width="0.5" stroke-linejoin="round"/>
<rect x="254.002" y="134.777" width="3.99824" height="3.99824" transform="rotate(-30 254.002 134.777)" fill="#CEBD9D" stroke="#282828" stroke-width="0.5" stroke-linejoin="round"/>
<rect x="250.529" y="126.045" width="4.87462" height="4.87462" transform="rotate(11.8529 250.529 126.045)" fill="#CEBD9D" stroke="#282828" stroke-width="0.5" stroke-linejoin="round"/>
<rect x="260.094" y="129.396" width="6.14868" height="6.14868" transform="rotate(26.0094 260.094 129.396)" fill="#CEBD9D" stroke="#282828" stroke-width="0.5" stroke-linejoin="round"/>
<rect x="262.793" y="118.458" width="10.6676" height="5.66829" rx="2.83415" transform="rotate(-6.07323 262.793 118.458)" fill="white" stroke="#282828" stroke-width="0.5"/>
<rect x="261.262" y="123.895" width="10.6676" height="5.66829" rx="2.83415" transform="rotate(-6.07323 261.262 123.895)" fill="white" stroke="#282828" stroke-width="0.5"/>
<rect x="260.707" y="129.228" width="9.68479" height="5.1687" rx="2.58435" transform="rotate(-6.07323 260.707 129.228)" fill="white" stroke="#282828" stroke-width="0.5"/>
<rect x="260.635" y="134.509" width="8.21619" height="4.4222" rx="2.2111" transform="rotate(-6.07323 260.635 134.509)" fill="white" stroke="#282828" stroke-width="0.5"/>
<path d="M184.902 102.991C178.237 101.658 161.786 99.1793 149.607 100.116C147.914 100.246 146.647 101.724 146.777 103.417C146.907 105.11 148.385 106.377 150.078 106.247C161.398 105.376 177.182 107.717 183.697 109.02C185.362 109.353 186.981 108.274 187.314 106.609C187.647 104.944 186.567 103.324 184.902 102.991Z" fill="#FFDE3B" stroke="#282828" stroke-width="0.5" stroke-linecap="round"/>
<path d="M164.172 95.7459C162.561 95.209 160.82 96.0795 160.283 97.6903C159.746 99.3011 160.617 101.042 162.227 101.579C164.941 102.483 168.993 104.082 172.311 105.904C173.982 106.822 175.329 107.723 176.217 108.535C176.658 108.939 176.879 109.222 176.988 109.386C176.979 109.402 176.969 109.418 176.958 109.435C176.758 109.756 176.398 110.202 175.827 110.764C174.686 111.887 173.012 113.173 171.019 114.51C167.055 117.169 162.246 119.755 159.032 121.316C157.505 122.058 156.868 123.897 157.61 125.425C158.352 126.952 160.191 127.589 161.718 126.847C165.095 125.207 170.171 122.483 174.445 119.616C176.57 118.19 178.603 116.659 180.14 115.147C180.907 114.391 181.628 113.566 182.175 112.69C182.703 111.843 183.22 110.707 183.22 109.395C183.22 107.01 181.644 105.167 180.367 103.999C178.96 102.711 177.13 101.537 175.271 100.515C171.528 98.459 167.107 96.7245 164.172 95.7459Z" fill="#00A176" stroke="#282828" stroke-width="0.5" stroke-linecap="round"/>
<path d="M139.138 184.414C139.174 184.512 139.268 184.576 139.372 184.576L168.719 184.577C168.825 184.577 168.919 184.51 168.954 184.411C169.633 182.511 169.769 180.894 169.518 179.519C169.268 178.143 168.634 177.027 167.8 176.125C166.139 174.329 163.682 173.38 161.848 172.88C156.775 171.496 152.596 173.512 150.396 174.573C150.027 174.751 149.714 174.902 149.462 175.006H145.775C143.026 175.006 140.945 176.246 139.763 178.054C138.584 179.857 138.311 182.208 139.138 184.414Z" fill="#00A176" stroke="#282828" stroke-width="0.5" stroke-linejoin="round"/>
<path d="M112.47 182.208H112.665L112.712 182.019C113.784 177.733 113.671 174.578 112.347 172.487C111.03 170.407 108.569 169.461 105.135 169.437C105.04 169.289 104.937 169.121 104.824 168.937C104.332 168.136 103.666 167.048 102.739 166.164C101.526 165.006 99.8459 164.166 97.4805 164.639C96.1055 164.914 94.5883 165.602 93.4126 166.846C92.2327 168.096 91.4102 169.892 91.4102 172.354V172.407L91.4317 172.455L95.7003 182.06L95.7663 182.208H95.9288L112.47 182.208Z" fill="#00A176" stroke="#282828" stroke-width="0.5" stroke-linecap="round"/>
<path d="M127.559 131.974C123.653 155.124 117.073 164.62 100.641 169.639" stroke="black" stroke-width="5" stroke-linecap="round"/>
<path d="M145.964 134.716C148.982 143.496 152.479 158.842 148.449 175.921" stroke="black" stroke-width="5" stroke-linecap="round"/>
<path d="M105.533 169.152C112.47 169.152 114.604 173.421 112.47 181.958H95.9287L97.5294 174.488C99.1302 171.286 101.264 169.152 105.533 169.152Z" fill="#00A176"/>
<path d="M97.4592 174.488C99.0408 171.286 101.15 169.152 105.367 169.152C112.22 169.152 115.138 173.955 112.47 181.958L95.8777 181.958L91.6602 172.354" stroke="#282828" stroke-width="0.5" stroke-linecap="round"/>
<circle cx="134.956" cy="105.258" r="35.3367" fill="#00A176" stroke="#282828" stroke-width="0.5"/>
<path d="M144.475 66.465C141.612 67.9671 136.722 68.9685 134.634 69.2815L114.056 81.4863C116.74 82.1122 124.256 82.8005 132.845 80.5474C143.581 77.7309 148.054 64.5873 144.475 66.465Z" fill="#003F31" stroke="#282828" stroke-width="0.5" stroke-linecap="round"/>
<path d="M135.9 68.4218C136.427 69.876 136.337 70.9977 135.824 71.9182C135.303 72.8522 134.325 73.619 132.995 74.3076C131.667 74.9949 130.019 75.5889 128.193 76.1945C127.652 76.3739 127.095 76.5543 126.527 76.7384C125.185 77.1734 123.78 77.6285 122.375 78.1375C120.93 78.6612 119.578 79.2079 118.325 79.7141C117.845 79.9084 117.379 80.0967 116.928 80.2755C115.297 80.9228 113.866 81.4436 112.623 81.6889C111.38 81.9342 110.358 81.8969 109.524 81.4665C108.693 81.0379 107.999 80.1946 107.466 78.7231C106.407 75.8005 107.011 72.5689 108.879 69.697C110.747 66.8249 113.872 64.3272 117.816 62.8982C121.761 61.4691 125.76 61.3857 129.034 62.395C132.308 63.4042 134.842 65.4992 135.9 68.4218Z" fill="#00CBCE" stroke="#282828" stroke-width="0.5"/>
<path d="M117.589 63.0591C117.658 63.2286 117.623 63.4667 117.424 63.7366C117.228 64.0023 116.896 64.2618 116.469 64.4367C116.042 64.6116 115.624 64.6597 115.298 64.6079C114.967 64.5553 114.774 64.4106 114.705 64.241C114.635 64.0715 114.671 63.8334 114.87 63.5635C115.066 63.2978 115.397 63.0383 115.824 62.8634C116.251 62.6885 116.67 62.6404 116.996 62.6922C117.327 62.7449 117.519 62.8896 117.589 63.0591Z" fill="#003F31" stroke="#282828" stroke-width="0.5"/>
<path d="M132.239 120.033C126.386 120.033 121.626 114.878 121.626 108.536C121.626 108.399 121.631 108.267 121.642 108.131L132.019 107.731C132.345 110.471 134.543 112.58 137.131 112.58C139.266 112.58 141.117 111.155 141.896 109.14C142.006 109.956 142.195 110.76 142.464 111.555C141.207 116.546 137.015 120.027 132.234 120.027L132.239 120.033Z" fill="white"/>
<path d="M131.793 108.005C132.229 110.756 134.491 112.844 137.131 112.844C139.093 112.844 140.823 111.707 141.775 110.014C141.88 110.535 142.017 111.055 142.191 111.571C140.944 116.404 136.868 119.77 132.24 119.77C126.533 119.77 121.889 114.732 121.889 108.536C121.889 108.483 121.889 108.436 121.889 108.389L131.787 108.01M142.059 107.084H142.022C141.991 109.982 139.813 112.323 137.131 112.323C134.449 112.323 132.461 110.182 132.256 107.463L121.395 107.879C121.384 108.1 121.363 108.315 121.363 108.536C121.363 115.031 126.233 120.296 132.24 120.296C137.278 120.296 141.507 116.583 142.743 111.55C142.301 110.272 142.049 108.894 142.049 107.447C142.049 107.326 142.064 107.205 142.064 107.084H142.059Z" fill="#282828"/>
<path d="M152.921 118.945C148.524 118.945 144.532 115.942 142.991 111.466C142.539 110.157 142.313 108.805 142.313 107.448C142.313 107.411 142.313 107.375 142.313 107.343L152.306 106.959C152.306 106.959 152.306 107.006 152.306 107.033C152.306 110.099 154.62 112.587 157.465 112.587C160.311 112.587 162.625 110.094 162.625 107.033C162.625 106.885 162.62 106.733 162.604 106.565L163.503 106.528C163.524 106.833 163.535 107.143 163.535 107.448C163.535 113.786 158.775 118.945 152.921 118.945Z" fill="white"/>
<path d="M163.248 106.801C163.259 107.017 163.264 107.232 163.264 107.448C163.264 113.643 158.62 118.682 152.914 118.682C148.627 118.682 144.735 115.747 143.231 111.382C142.805 110.151 142.584 108.878 142.568 107.595L143.031 107.579L152.035 107.232C152.135 110.351 154.528 112.849 157.453 112.849C160.377 112.849 162.875 110.241 162.875 107.027C162.875 106.959 162.875 106.885 162.875 106.811L163.248 106.796M163.738 106.254L162.302 106.307C162.333 106.543 162.354 106.78 162.354 107.027C162.354 109.951 160.161 112.323 157.458 112.323C154.754 112.323 152.561 109.951 152.561 107.027C152.561 106.911 152.572 106.796 152.577 106.68L143.015 107.048L142.058 107.085C142.058 107.206 142.042 107.322 142.042 107.448C142.042 108.894 142.295 110.272 142.737 111.55C144.278 116.021 148.249 119.208 152.919 119.208C158.925 119.208 163.795 113.943 163.795 107.448C163.795 107.043 163.774 106.648 163.738 106.254Z" fill="#282828"/>
<path d="M152.563 107.027C152.563 109.951 154.756 112.323 157.459 112.323C160.163 112.323 162.356 109.951 162.356 107.027C162.356 106.779 162.335 106.543 162.303 106.306L152.579 106.68C152.574 106.795 152.563 106.911 152.563 107.027Z" fill="#282828"/>
<path d="M137.132 112.323C139.819 112.323 141.997 109.983 142.023 107.09L132.256 107.464C132.461 110.183 134.565 112.323 137.132 112.323Z" fill="#282828"/>
<path d="M139.47 121.575C141.128 123.698 144.345 123.664 146.597 122.589" stroke="#282828" stroke-width="0.5" stroke-linecap="round" stroke-linejoin="round"/>
<mask id="path-63-outside-1_3817_42892" maskUnits="userSpaceOnUse" x="91.2899" y="120.602" width="45.6174" height="55.5476" fill="black">
<rect fill="white" x="91.2899" y="120.602" width="45.6174" height="55.5476"/>
<path fill-rule="evenodd" clip-rule="evenodd" d="M119.102 125.414C116.794 124.911 114.401 125.754 112.919 127.593L99.9461 143.686C99.1912 144.622 98.6115 145.687 98.2347 146.829L94.8598 157.062C93.0014 162.696 96.4286 168.7 102.225 169.964L115.575 172.877C121.532 174.177 127.256 169.888 127.682 163.806L128.439 153.02C128.505 152.071 128.436 151.117 128.233 150.188L123.864 130.176C123.344 127.794 121.483 125.934 119.102 125.414ZM118.495 128.297C116.813 127.93 115.07 128.555 114.005 129.906L103.58 143.13C102.086 145.65 103.294 148.906 106.07 149.842L107.888 150.456C111.495 151.673 115.224 152.487 119.01 152.882L120.656 153.055C123.566 153.359 125.917 150.719 125.278 147.864L121.939 131.776C121.578 130.038 120.229 128.675 118.495 128.297Z"/>
</mask>
<path fill-rule="evenodd" clip-rule="evenodd" d="M119.102 125.414C116.794 124.911 114.401 125.754 112.919 127.593L99.9461 143.686C99.1912 144.622 98.6115 145.687 98.2347 146.829L94.8598 157.062C93.0014 162.696 96.4286 168.7 102.225 169.964L115.575 172.877C121.532 174.177 127.256 169.888 127.682 163.806L128.439 153.02C128.505 152.071 128.436 151.117 128.233 150.188L123.864 130.176C123.344 127.794 121.483 125.934 119.102 125.414ZM118.495 128.297C116.813 127.93 115.07 128.555 114.005 129.906L103.58 143.13C102.086 145.65 103.294 148.906 106.07 149.842L107.888 150.456C111.495 151.673 115.224 152.487 119.01 152.882L120.656 153.055C123.566 153.359 125.917 150.719 125.278 147.864L121.939 131.776C121.578 130.038 120.229 128.675 118.495 128.297Z" fill="#FFFAF1"/>
<path d="M112.919 127.593L112.53 127.279L112.919 127.593ZM99.9461 143.686L100.335 144L99.9461 143.686ZM98.2347 146.829L98.7096 146.986L98.2347 146.829ZM94.8598 157.062L94.3849 156.905L94.8598 157.062ZM102.225 169.964L102.332 169.476L102.225 169.964ZM115.575 172.877L115.469 173.365L115.575 172.877ZM127.682 163.806L127.184 163.771L127.682 163.806ZM128.439 153.02L127.94 152.985L128.439 153.02ZM128.233 150.188L127.744 150.294L128.233 150.188ZM123.864 130.176L123.375 130.282L123.864 130.176ZM114.005 129.906L114.397 130.216L114.005 129.906ZM103.58 143.13L103.187 142.82L103.167 142.846L103.15 142.875L103.58 143.13ZM106.07 149.842L105.91 150.316L106.07 149.842ZM107.888 150.456L108.048 149.982L107.888 150.456ZM119.01 152.882L119.062 152.385L119.01 152.882ZM120.656 153.055L120.708 152.557L120.656 153.055ZM125.278 147.864L124.789 147.965L124.79 147.973L125.278 147.864ZM121.939 131.776L121.449 131.878L121.449 131.878L121.939 131.776ZM113.308 127.907C114.671 126.216 116.873 125.44 118.995 125.903L119.208 124.926C116.716 124.382 114.13 125.293 112.53 127.279L113.308 127.907ZM100.335 144L113.308 127.907L112.53 127.279L99.5568 143.372L100.335 144ZM98.7096 146.986C99.0675 145.901 99.6182 144.889 100.335 144L99.5568 143.372C98.7642 144.355 98.1555 145.473 97.7599 146.673L98.7096 146.986ZM95.3346 157.218L98.7096 146.986L97.7599 146.673L94.3849 156.905L95.3346 157.218ZM102.332 169.476C96.825 168.274 93.5692 162.571 95.3346 157.218L94.3849 156.905C92.4337 162.821 96.0322 169.125 102.118 170.453L102.332 169.476ZM115.682 172.388L102.332 169.476L102.118 170.453L115.469 173.365L115.682 172.388ZM127.184 163.771C126.779 169.549 121.341 173.623 115.682 172.388L115.469 173.365C121.724 174.73 127.733 170.228 128.181 163.841L127.184 163.771ZM127.94 152.985L127.184 163.771L128.181 163.841L128.937 153.055L127.94 152.985ZM127.744 150.294C127.937 151.178 128.003 152.084 127.94 152.985L128.937 153.055C129.007 152.059 128.935 151.057 128.721 150.081L127.744 150.294ZM123.375 130.282L127.744 150.294L128.721 150.081L124.352 130.069L123.375 130.282ZM118.995 125.903C121.186 126.381 122.897 128.092 123.375 130.282L124.352 130.069C123.791 127.496 121.781 125.487 119.208 124.926L118.995 125.903ZM114.397 130.216C115.344 129.014 116.894 128.459 118.388 128.785L118.601 127.808C116.733 127.4 114.796 128.095 113.612 129.596L114.397 130.216ZM103.973 143.439L114.397 130.216L113.612 129.596L103.187 142.82L103.973 143.439ZM106.229 149.369C103.755 148.533 102.679 145.631 104.01 143.385L103.15 142.875C101.494 145.668 102.833 149.278 105.91 150.316L106.229 149.369ZM108.048 149.982L106.229 149.369L105.91 150.316L107.729 150.93L108.048 149.982ZM119.062 152.385C115.313 151.993 111.619 151.187 108.048 149.982L107.729 150.93C111.37 152.159 115.136 152.98 118.958 153.38L119.062 152.385ZM120.708 152.557L119.062 152.385L118.958 153.38L120.604 153.552L120.708 152.557ZM124.79 147.973C125.354 150.494 123.278 152.826 120.708 152.557L120.604 153.552C123.854 153.892 126.479 150.943 125.766 147.754L124.79 147.973ZM121.449 131.878L124.789 147.965L125.768 147.762L122.428 131.674L121.449 131.878ZM118.388 128.785C119.929 129.121 121.129 130.333 121.449 131.878L122.428 131.674C122.028 129.743 120.528 128.228 118.601 127.808L118.388 128.785Z" fill="#282828" mask="url(#path-63-outside-1_3817_42892)"/>
<path fill-rule="evenodd" clip-rule="evenodd" d="M120.436 126.98C121.644 127.968 121.821 129.747 120.834 130.954C118.343 133.998 114.825 138.704 112.341 142.926C111.085 145.06 110.186 146.916 109.771 148.297C109.685 148.581 109.63 148.815 109.594 149.005C109.601 149.003 109.608 149.002 109.615 149C110.206 148.869 111.052 148.476 112.099 147.761C114.166 146.35 116.293 144.187 117.608 142.609C118.607 141.411 120.388 141.249 121.586 142.247C122.784 143.246 122.946 145.027 121.947 146.225C120.438 148.036 117.933 150.618 115.283 152.427C113.972 153.322 112.438 154.158 110.844 154.514C109.185 154.883 107.183 154.772 105.512 153.34C104.358 152.35 103.965 151.017 103.899 149.888C103.836 148.795 104.058 147.679 104.362 146.669C104.973 144.637 106.143 142.32 107.472 140.062C110.156 135.5 113.868 130.547 116.462 127.377C117.45 126.17 119.229 125.992 120.436 126.98Z" fill="#00A176" stroke="#282828" stroke-width="0.5" stroke-linecap="round" stroke-linejoin="round"/>
<path d="M114.486 135.532C115.631 133.994 117.288 132.834 117.94 132.406C120.05 131.017 122.877 129.83 124.718 130.703C126.19 131.4 126.812 133.429 125.83 134.402C126.529 134.541 127.112 135.19 127.645 136.186C128.177 137.183 127.622 138.841 127.105 139.212C127.661 139.489 128.115 139.952 128.426 140.436C129.105 141.489 129.012 142.745 128.327 143.305C128.848 143.53 129.302 144.002 129.64 144.825C130.526 146.979 127.895 148.506 125.264 150.033C122.634 151.56 118.08 151.656 115.026 146.394C111.972 141.132 113.055 137.454 114.486 135.532Z" fill="white"/>
<path d="M122.851 145.248C123.197 145.007 124.206 144.365 125.482 143.721C126.468 143.224 127.485 142.94 128.327 143.305M128.327 143.305C128.848 143.53 129.302 144.002 129.64 144.825C130.526 146.979 127.895 148.506 125.264 150.033C122.634 151.56 118.08 151.656 115.026 146.394C111.972 141.132 113.055 137.454 114.486 135.532C115.631 133.994 117.288 132.834 117.94 132.406C120.05 131.017 122.877 129.83 124.718 130.703C126.19 131.4 126.812 133.429 125.83 134.402M128.327 143.305C129.012 142.745 129.105 141.489 128.426 140.436C128.115 139.952 127.661 139.489 127.105 139.212M121.161 141.499C121.851 141.018 123.552 139.893 124.828 139.25C125.683 138.819 126.463 138.891 127.105 139.212M127.105 139.212C127.622 138.841 128.177 137.183 127.645 136.186C127.112 135.19 126.529 134.541 125.83 134.402M118.829 137.274C119.571 136.658 122.598 134.82 123.557 134.528C124.515 134.236 125.403 134.317 125.83 134.402" stroke="#282828" stroke-width="0.5" stroke-linecap="round" stroke-linejoin="round"/>
<path d="M58.0223 183.968C58.0589 184.066 58.1522 184.131 58.2564 184.131L89.3244 184.131C89.43 184.131 89.5243 184.064 89.5598 183.965C90.2775 181.955 90.4207 180.246 90.1564 178.794C89.8918 177.341 89.222 176.162 88.3405 175.208C86.5849 173.31 83.9872 172.307 82.0469 171.777C76.6819 170.314 72.2639 172.445 69.9339 173.568C69.5419 173.757 69.209 173.918 68.9406 174.028H65.0353C62.1298 174.028 59.9313 175.339 58.6829 177.248C57.4374 179.153 57.1481 181.637 58.0223 183.968Z" fill="#FFF757" stroke="#282828" stroke-width="0.5" stroke-linejoin="round"/>
<path d="M23.3111 180.818H23.5063L23.5536 180.629C24.6877 176.093 24.5677 172.757 23.1693 170.549C21.7777 168.352 19.1753 167.351 15.5383 167.327C15.4361 167.168 15.3251 166.987 15.2041 166.79C14.6836 165.942 13.979 164.793 12.9997 163.858C11.7185 162.635 9.94429 161.748 7.44577 162.247C5.9926 162.538 4.38934 163.265 3.14715 164.58C1.90069 165.9 1.03125 167.798 1.03125 170.401V170.454L1.0528 170.502L5.57174 180.67L5.63773 180.818H5.8002L23.3111 180.818Z" fill="#FFF757" stroke="#282828" stroke-width="0.5" stroke-linecap="round"/>
<path d="M39.285 127.653C35.1497 152.161 28.1833 162.213 10.7885 167.527M58.7798 130.942C63.2196 139.711 69.1167 155.295 67.3708 173.79" stroke="black" stroke-width="5" stroke-linecap="round"/>
<path d="M96.1796 80.5862C89.4293 65.0957 77.3293 62.2688 64.5467 65.8997C55.418 55.9149 38.6226 54.3889 26.1353 59.6866C7.49496 67.5946 1.84628 87.9296 7.49496 103.181C13.1436 118.433 29.3802 131.989 54.9419 131.989C89.8681 131.989 104.169 98.9201 96.1796 80.5862Z" fill="#FFF757" stroke="#282828" stroke-width="0.5" stroke-linecap="round" stroke-linejoin="round"/>
<path d="M70.7897 113.768C64.3942 113.768 59.2097 108.583 59.2097 102.188C59.2097 95.7924 64.3942 90.6079 70.7897 90.6079C77.1851 90.6079 82.3696 95.7924 82.3696 102.188C82.3696 108.583 77.1851 113.768 70.7897 113.768Z" fill="white" stroke="#282828" stroke-width="0.5" stroke-linecap="round" stroke-linejoin="round"/>
<path d="M67.6746 109.975C63.7106 109.975 60.4972 106.762 60.4972 102.798C60.4972 98.8336 63.7106 95.6201 67.6746 95.6201C71.6386 95.6201 74.8521 98.8336 74.8521 102.798C74.8521 106.762 71.6386 109.975 67.6746 109.975Z" fill="#282828"/>
<path d="M66.9893 102.224C65.9048 100.62 66.1698 98.5462 67.581 97.5922C68.9923 96.6381 71.0154 97.1651 72.0999 98.7693C73.1844 100.373 72.9194 102.447 71.5082 103.401C70.0969 104.355 68.0737 103.828 66.9893 102.224Z" fill="white"/>
<path d="M66.6932 107.249C67.1255 108.263 68.2995 108.748 69.3187 108.343C70.338 107.937 70.8182 106.779 70.386 105.77C69.9537 104.762 68.7797 104.271 67.7605 104.677C66.7412 105.082 66.261 106.24 66.6932 107.249Z" fill="white"/>
<path d="M71.2244 105.509C70.8566 105.342 70.6913 104.913 70.8552 104.551C71.0192 104.188 71.4504 104.029 71.8183 104.196C72.1861 104.362 72.3514 104.791 72.1875 105.153C72.0235 105.516 71.5923 105.675 71.2244 105.509Z" fill="white"/>
<path d="M62.4311 103.323C62.1657 101.622 62.8169 100.108 63.8856 99.9415C64.9543 99.7747 66.0358 101.018 66.3012 102.719C66.5666 104.419 65.9154 105.933 64.8467 106.1C63.778 106.267 62.6965 105.023 62.4311 103.323Z" fill="white"/>
<path d="M49.9877 117.621C42.9026 117.621 37.159 111.877 37.159 104.792C37.159 97.707 42.9026 91.9634 49.9877 91.9634C57.0728 91.9634 62.8164 97.707 62.8164 104.792C62.8164 111.877 57.0728 117.621 49.9877 117.621Z" fill="white" stroke="#282828" stroke-width="0.5" stroke-linecap="round" stroke-linejoin="round"/>
<path d="M49.3622 112.765C44.9738 112.765 41.4163 109.208 41.4163 104.819C41.4163 100.431 44.9738 96.8735 49.3622 96.8735C53.7506 96.8735 57.3081 100.431 57.3081 104.819C57.3081 109.208 53.7506 112.765 49.3622 112.765Z" fill="#282828"/>
<path d="M48.6029 104.179C47.4013 102.402 47.6939 100.105 49.2565 99.0481C50.8192 97.9918 53.0601 98.5763 54.2617 100.354C55.4634 102.131 55.1707 104.429 53.6081 105.485C52.0455 106.541 49.8046 105.957 48.6029 104.179Z" fill="white"/>
<path d="M48.2725 109.75C48.7474 110.871 50.0495 111.415 51.1808 110.962C52.3121 110.508 52.8404 109.233 52.3602 108.112C51.8799 106.991 50.5831 106.447 49.4518 106.901C48.3205 107.354 47.7922 108.63 48.2725 109.75Z" fill="white"/>
<path d="M52.8786 107.392C53.0547 107.802 53.5296 108 53.9405 107.834C54.3514 107.669 54.5435 107.205 54.3728 106.794C54.202 106.383 53.7217 106.186 53.3108 106.351C52.8999 106.516 52.7078 106.981 52.8786 107.392Z" fill="white"/>
<path d="M43.5535 105.403C43.2595 103.519 43.9795 101.842 45.1618 101.657C46.344 101.473 47.5408 102.851 47.8348 104.735C48.1288 106.619 47.4088 108.296 46.2265 108.48C45.0443 108.665 43.8475 107.287 43.5535 105.403Z" fill="white"/>
<path d="M76.6604 112.383C76.9193 115.345 74.1093 119.911 66.4399 120.579C58.7705 121.246 52.6668 118.84 51.551 114.979C50.4352 111.117 52.4816 109.498 56.4223 109.152C60.3583 108.812 62.115 110.149 64.354 109.953C66.5929 109.757 68.1737 108.337 70.9604 108.093C73.7472 107.849 76.4267 109.729 76.6604 112.383Z" fill="#FFAD94" stroke="#282828" stroke-width="0.5" stroke-linecap="round" stroke-linejoin="round"/>
<path d="M65.478 119.062C60.9995 119.449 57.1615 116.802 56.9831 114.808C56.8047 112.814 57.3077 111.643 59.8176 111.421C62.3275 111.199 62.636 111.587 64.8061 111.399C66.9761 111.211 67.1465 110.783 69.5186 110.576C71.8907 110.37 72.5485 112.421 72.6593 113.649C72.77 114.877 72.1896 118.474 65.4721 119.058L65.478 119.062Z" fill="#282828" stroke="#282828" stroke-width="0.5" stroke-linecap="round" stroke-linejoin="round"/>
<path d="M31.9426 120.873C32.3544 119.226 31.3529 117.557 29.7057 117.145C28.0585 116.733 26.3893 117.735 25.9775 119.382C24.9782 123.379 24.1545 129.551 25.113 135.007C25.595 137.751 26.569 140.555 28.4295 142.79C30.3624 145.112 33.0944 146.623 36.6129 146.916C48.029 147.867 56.6411 144.971 59.8584 143.132C61.3326 142.29 61.8447 140.412 61.0023 138.938C60.1599 137.463 58.2819 136.951 56.8077 137.794C54.753 138.968 47.3984 141.645 37.1235 140.788C35.2193 140.63 34.0161 139.89 33.1552 138.856C32.2219 137.735 31.5438 136.077 31.169 133.943C30.4141 129.647 31.0591 124.408 31.9426 120.873Z" fill="#FFF757" stroke="#282828" stroke-width="0.5" stroke-linecap="round"/>
<rect x="-0.25" y="0.25" width="20.965" height="32.2624" rx="0.75" transform="matrix(-1 0 0 1 90.0303 113.914)" fill="#CBCBCB" stroke="#282828" stroke-width="0.5"/>
<rect x="-0.25" y="0.25" width="20.965" height="32.2624" rx="0.75" transform="matrix(-1 0 0 1 92.29 113.914)" fill="url(#paint1_linear_3817_42892)" stroke="#282828" stroke-width="0.5"/>
<path d="M53.9188 143.435C55.1231 145.77 56.9276 147.527 58.8818 148.474C60.8361 149.421 62.9561 149.563 64.7607 148.632C66.5653 147.702 67.6789 145.892 68.0406 143.751C68.4024 141.61 68.0173 139.121 66.813 136.785C65.6086 134.45 63.8042 132.693 61.85 131.746C59.8956 130.799 57.7756 130.657 55.9711 131.588C54.1665 132.519 53.0529 134.328 52.6911 136.47C52.3294 138.611 52.7144 141.1 53.9188 143.435Z" fill="white" stroke="#282828" stroke-width="0.5"/>
<path d="M64.1653 124.836C68.4715 121.852 72.6257 120.119 76.4707 120.865C80.6454 121.674 81.8538 123.102 81.9046 124.835C81.9623 126.804 79.6902 126.876 78.5358 126.656C80.7154 127.341 82.6228 128.642 82.6228 130.56C82.6228 132.402 81.0392 132.73 80.0693 132.617C81.1442 133.438 81.7366 134.515 81.084 135.78C80.6543 136.613 79.0866 136.866 78.2832 136.641C79.9445 137.555 80.2553 138.881 79.5467 140.256C78.7777 141.747 76.4707 139.51 74.1637 140.256C72.3181 140.852 69.2933 143.488 68.7806 143.985C66.1002 146.584 61.8583 145.476 60.3204 143.985C58.3592 142.083 57.2446 138.764 58.0138 134.289C58.6461 130.611 61.421 126.737 64.1653 124.836Z" fill="white"/>
<path d="M78.0087 126.504C78.7002 126.83 81.9737 127.194 81.9046 124.835C81.8538 123.102 80.6454 121.674 76.4707 120.865C72.6257 120.119 68.4715 121.852 64.1653 124.836C61.421 126.737 58.6461 130.611 58.0138 134.289C57.2446 138.764 58.3592 142.083 60.3204 143.985C61.8583 145.476 66.1002 146.584 68.7806 143.985C69.2933 143.488 72.3181 140.852 74.1637 140.256C76.4707 139.51 78.7777 141.747 79.5467 140.256C80.5318 138.345 79.5467 136.527 75.7017 135.781C72.5928 135.177 70.9125 136.892 69.6308 137.638M68.0109 128.323C69.2926 127.577 71.8567 126.085 74.9327 126.085C78.0087 126.085 82.6228 127.577 82.6228 130.56C82.6228 132.712 80.4633 132.797 79.6434 132.528M69.6308 132.554C70.9125 131.808 72.6257 130.86 74.9327 130.86C77.2397 130.86 82.6228 132.798 81.084 135.78C80.5974 136.724 78.6515 136.923 78.0087 136.527" stroke="black" stroke-width="0.5" stroke-linecap="round"/>
<rect x="85.6872" y="122.071" width="10.6676" height="5.66829" rx="2.83415" transform="rotate(-21.8098 85.6872 122.071)" fill="white" stroke="#282828" stroke-width="0.5"/>
<rect x="85.6872" y="127.72" width="10.6676" height="5.66829" rx="2.83415" transform="rotate(-21.8098 85.6872 127.72)" fill="white" stroke="#282828" stroke-width="0.5"/>
<rect x="86.5998" y="133.003" width="9.68479" height="5.1687" rx="2.58435" transform="rotate(-21.8098 86.5998 133.003)" fill="white" stroke="#282828" stroke-width="0.5"/>
<rect x="87.9631" y="138.106" width="8.21619" height="4.4222" rx="2.2111" transform="rotate(-21.8098 87.9631 138.106)" fill="white" stroke="#282828" stroke-width="0.5"/>
<path d="M15.9679 167.011C23.3112 167.011 25.5707 171.53 23.3112 180.568H5.80029L7.4949 172.66C9.1895 169.27 11.449 167.011 15.9679 167.011Z" fill="#FFF757"/>
<path d="M7.42041 172.66C9.09472 169.271 11.3271 167.011 15.792 167.011C23.0474 167.011 26.1355 172.095 23.3111 180.568L5.74609 180.568L1.28125 170.4" stroke="#282828" stroke-width="0.5" stroke-linecap="round"/>
<defs>
<linearGradient id="paint0_linear_3817_42892" x1="257.733" y1="121.309" x2="257.733" y2="139.898" gradientUnits="userSpaceOnUse">
<stop stop-color="#653A12"/>
<stop offset="0.67" stop-color="#56310D"/>
<stop offset="1" stop-color="#4B290A"/>
</linearGradient>
<linearGradient id="paint1_linear_3817_42892" x1="10.7325" y1="0" x2="10.7325" y2="32.7624" gradientUnits="userSpaceOnUse">
<stop stop-color="#282828"/>
<stop offset="1" stop-color="#555555"/>
</linearGradient>
</defs>
</svg>
